<?xml version="1.0" encoding="UTF-8"?>
<svg id="Layer_1" xmlns="http://www.w3.org/2000/svg" version="1.1" viewBox="0 0 258.6 52.2">
  <!-- Generator: Adobe Illustrator 30.0.0, SVG Export Plug-In . SVG Version: 2.1.1 Build 123)  -->
  <defs>
    <style>
      .st0 {
        fill: #1b1919;
      }
    </style>
  </defs>
  <path class="st0" d="M17.5,2.9c.7-1.3-.3-2.9-.3-2.9,0,0-.4,1.4-2.5,1.3v2.7c0,0,2.1.3,2.8-1.1"/>
  <path class="st0" d="M6.6,10.8s-1.1-1.3-2.5-.8-1.4,1.1-2,1.3c-.6.2-1.7.1-2-.2.3.3,1.8,1.7,3.2.9,1.5-1.1,1.8-1.8,3.3-1.2"/>
  <path class="st0" d="M8.4,47.2c.9,0,1.6.4,1.6.4,0,0,.6,0,1.6-2,1.1-2,1.1-3.1,1.2-4.3,0-1.2-1-3.4-1-3.4-1-.7-3-3-3-3-.4,1.1-.5.8,0,3.3s1.4,2.4,1.8,5c.4,2.5-2.2,4-2.2,4"/>
  <path class="st0" d="M6.9,48.2s-4.4.2-4.4,3.4c0,0,1.2.2,3.4.2,0,0-1.2-2,1-3.6"/>
  <path class="st0" d="M13.7,7.9c-.9,0-1.5.3-1.9,0s-.5-.7-1-.7-1,0-1,0c0,0,.2-.2,1.1-.6,0,0,2,.2,2.8.3.8,0,1.1.2,1.1.2,0,0-.2.9-1.1,1M54.8,41.8c0-.5,1.6-1.1,1.6-1.1,0,0-.5-1.5-1-1.9s-1.5,0-2.1-.7c-.6-.6-2.8-1.6-3.1-6.9s-.2-5-.2-5c0,0,5.4-3.1,5.2-9.5-.2-6.3-7.8-5.8-10.4-3.9s-9,5.2-11.1-.7c-.7-1.8,2.6-2.7,2.6-2.7,0,0,1.8.1,2.8-.8s.4-1.1,1.2-1.5c.8-.3,1.6,0,2.6-1.1s1.3-3,1.3-3c0,0-.9,1.5-2.1,1.4s-3.1-1.2-4.6-.8c-1.4.4-1.9.9-2.5,2-.6,1-.5,1.3-1.2,1.9-.7.5-5.1,6.5,2,9.6,4.7,1.4,8.6-1.8,9.6-2.4s2-1.2,4-1.2,4,1.3,4.1,3.2-1.2,4.2-4.2,4.9c-.6,0-1.6.3-1.6.3,0,0-1.7-2.3-9.2-.6-7.5,1.7-15.1,2.7-17-3.2-.5-5.3,3.4.6,3.4.6,0,0-.1-5.2-1.8-5.2s-2-.8-2-.8c0,0,.2-1,.7-1s1.8,1.5,1.8,1.5c0,0,.4-4-1.1-4.9-.8-.5-1.2-1.1-1.4-1.5.6,0,1.2-.3,1.7-.7,1-.9,1.5-2,1.6-3.1s-.3-.5-1,0-2,.6-3,.6-2.1-.4-2.1-.4c0,0-.7.9-1.5,1.2-.8.2-2.7,0-4.2,0-1.4,0-2.2-.8-3.2-.5-1,.3-1.3,1-2.6,1.3s-1.8,0-2.7,0-2,0-2.2.6-.5,1.7-.2,2.6.5,1.2,2,1.1,3.2,0,3.9.9.7,2,.5,2.6-1.5.4-2.2.3-1.7-.5-2.1.2-.8,3,.6,2.5c1.4-.5,5.1-.3,5.6-.3h.5s-5.2,3.9-5.1,8.7c0,7.4,6.5,12.1,6.5,12.1,0,0-1.1-3.4-.9-6.4.2-3,1.6-4.3,1.6-4.3,0,0-1.1,3.4-.1,8,1,4.6,2.2,8.3,1,11.2s-2.2,4-2.9,4-1.8-.5-2.5-.2c-.6.3-1.2,1.1-1.2,1.9s-.2,1.7.6,1.7,2.8,0,3.8,0,1.9-.2,2.6-.7,1-2.8,1-2.8c0,0,.8.2.8.7l.4-1.3c-.2-.7-.1-1,.5-2.2.6-1.1.7-1.1,1.6-2.1.9-.9-.6-.7-.6-1.9s.4-1.5.9-2.7c.5-1.1-.1-.9-.5-1.2s.2-.5.3-1.3c.1-1.4-1.5-2.3-1.5-2.3,3.5-.6,3.8-1.9,3.8-1.9-4.5-1.2-4.3-4.8-4.3-4.8,4.5.4,5.7-1.9,5.7-1.9-2.4.5-3.5-2.2-3.5-2.2.7-.7.4-2.7.4-2.7-1.6-3.4-5-1-5-1,.9-2.1,4.5-2,5.6.2s.2,3.3.2,3.3c1.1,2.1,3.9,1.6,3.9,1.6-2.3,4.6-6,3.7-6,3.7,1.2,3.3,4.1,2.7,4.1,2.7-.1,1.7-.6,2.5-1.3,2.8.3.2.8.4,1.7.2.6-.2,1.3-.5,1.9-.8,1.4-.6,3-1.3,5.3-1.6,2.7-.3,4.4-.1,6.1.8,0-.3.3-.9,0-1.4-.2-.4-.4-.9,0-.6l.4.4s1.1,1.4,1.3,2.9l.4.3c.6.5,1.1,1.1,1.6,1.6.9,1,1.7,1.9,3,2.7.4.2.9.5,1.6.9,1.6.8,4.1.4,5.4,1s2.4,2.6,3,4,.6,2.7.2,3.5-.6,1.3-1.1,1.3-.8-.4-1.6-.4-1.2.4-1.5,1.1c-.3.7-.3,2.1,0,2.1s5.1-.4,5.7-.4,1-.7,1.1-1.4,0-1.7,0-2.2,1,.3,1,.3c0,0,.2-1.3-.3-2.8-.5-1.6-1.1-3.3-1-3.8"/>
  <path class="st0" d="M38.5,36.7c-.5-.5-.9-1.1-1.5-1.6-2.2-2.1-3.8-2.5-7.4-2.1-2.2.2-3.7.9-5,1.5-.7.3-1.4.6-2.1.8-1.6.5-2.4-.6-2.8-1.2h-.4s-.9.4-.5.8c.4.4,1.8,2.3,5.2,1.9,1.9-.3,9-1.3,9-1.3,0,0-3.1,1.2-1.9,4.7.4,1.1,2.6,2.1,3.5,3.4.9,1.3.7,2.9.2,3.7-.5.7-2,1.2-2,1.2,0,0-2-.9-3.4.8s-.6,2.6,0,2.6,4.5,0,5.3,0,1.3-.4,1.7-.9.6-2.4.6-2.4c0,0,1.1.5,1.1,1.1.3-.9,0-1.2,0-2.2,0-.9.2-1.9.7-2.4s1.5-.6,1.8-1.2c.3-.6-.2-.5-.5-.7s-1-.8-.7-1.3,1.4-.9,1.5-1.6c0-.3,0-.4.2-.7-1-1.1-1.8-1.9-2.6-2.8"/>
  <path class="st0" d="M77.7,40.8c0,.9-.3,1.7-.8,2.2s-1.2.8-2.1.8-1.6-.3-2.1-.8-.8-1.3-.8-2.2v-9.2h-2.1v9.3c0,.7,0,1.4.4,2s.6,1.1,1.1,1.5c.4.4,1,.8,1.6,1s1.3.4,2,.4,1.4,0,2-.4c.6-.2,1.2-.6,1.6-1s.8-.9,1.1-1.5c.3-.6.4-1.3.4-2v-9.3h-2.1l-.2,9.2h0Z"/>
  <path class="st0" d="M90.1,36.5c-.3-.3-.7-.5-1.1-.7s-.9-.2-1.4-.2-1,0-1.4.3c-.5.2-.9.5-1.2.9v-1h-2v10h2v-6.1c0-.8.2-1.3.6-1.7s.9-.5,1.5-.5,1,.2,1.4.5c.4.4.6.9.6,1.7v6.1h2v-6.4c0-.6,0-1.1-.2-1.5,0-.6-.4-1-.8-1.4"/>
  <rect class="st0" x="93.9" y="31.6" width="2.1" height="2.1"/>
  <rect class="st0" x="93.9" y="35.7" width="2" height="10"/>
  <polygon class="st0" points="102.4 42.7 100.1 35.7 98 35.7 101.6 45.6 103.2 45.6 106.9 35.7 104.8 35.7 102.4 42.7"/>
  <path class="st0" d="M109.9,39.8c0-.3,0-.5,0-.7,0-.2,0-.4.2-.6.2-.4.4-.7.8-.9.3-.2.8-.3,1.2-.3s.9,0,1.2.3.6.5.7.9c0,.2.2.4.2.6s0,.4,0,.7h-4.5,0ZM115.3,36.9c-.4-.4-.8-.7-1.3-1-.5-.2-1.1-.4-1.8-.4-1.3,0-2.3.4-3.1,1.3-.8.9-1.1,2.1-1.1,3.8s0,1.7.3,2.4.6,1.2,1,1.6c.4.4.9.7,1.4.9s1.1.3,1.8.3.8,0,1.2,0c.3,0,.7-.2,1-.3s.6-.3.8-.5c.3-.2.5-.4.8-.7l-1.3-1.2c-.4.3-.7.6-1.1.8-.3.2-.8.2-1.4.2s-1.4-.2-1.9-.7c-.4-.5-.6-1.2-.6-2h6.5v-.9c0-.7,0-1.4-.3-1.9-.3-.7-.6-1.2-.9-1.6"/>
  <path class="st0" d="M123.4,35.6c-.6,0-1.1,0-1.6.3s-.8.5-1.1.9v-1.1h-2v10h2v-6.1c0-.7.2-1.2.6-1.6s.9-.6,1.4-.6.6,0,.8.2.4.3.7.5l1.5-1.5c-.3-.3-.7-.6-1.1-.7-.3-.3-.7-.3-1.2-.3"/>
  <path class="st0" d="M134.1,40.6c-.5-.4-1.3-.7-2.2-.8h-1.6c-.5,0-.9-.3-1.1-.5-.2-.2-.3-.4-.3-.8s.2-.7.5-.9.8-.4,1.4-.4.9,0,1.3.2.8.3,1.1.6l1.3-1.3c-.5-.4-1-.7-1.6-.9s-1.3-.3-2.1-.3-1,0-1.5.2c-.5,0-.9.3-1.2.6s-.6.6-.8,1-.3.8-.3,1.3c0,.9.3,1.5.8,2,.5.4,1.2.7,2.2.8h1.6c.5,0,.8.3,1,.5s.3.5.3.8c0,.5-.2.8-.6,1-.4.2-.9.3-1.6.3s-1,0-1.5-.2c-.5,0-1-.4-1.4-.8l-1.3,1.3c.6.6,1.2,1,1.9,1.1.7.2,1.5.3,2.3.3s1.1,0,1.7-.2c.5,0,1-.3,1.3-.6.4-.3.6-.6.9-1,.2-.4.3-.9.3-1.4-.1-.8-.3-1.5-.8-1.9"/>
  <rect class="st0" x="137.2" y="31.6" width="2.1" height="2.1"/>
  <rect class="st0" x="137.3" y="35.7" width="2" height="10"/>
  <path class="st0" d="M145,32.7h-2v3h-1.1v1.5h1.1v5.5c0,.3.1.7.2,1,.1.3.3.6.5.9.2.3.5.5.8.6.4.2.8.2,1.2.2h1.2v-1.7h-.8c-.4,0-.7,0-.8-.3-.2-.2-.3-.5-.3-.9v-5.4h1.9v-1.4h-1.9v-3h0Z"/>
  <path class="st0" d="M153.4,42.7l-2.4-7h-2.1l3.5,9.5-.5,1.5c-.1.4-.3.7-.5.8-.2.2-.5.2-.9.2h-.5v1.8h.8c.4,0,.7,0,1.1-.2.3,0,.7-.3.9-.6.3-.3.5-.7.7-1.2l4.4-12h-2.1l-2.4,7.2Z"/>
  <path class="st0" d="M78.3,22.6c-.5.5-1.1.7-2,.7h-3.9v-5h3.9c.9,0,1.5.2,2,.7s.7,1.1.7,1.8-.3,1.4-.7,1.8M72.3,11.4h3.7c.8,0,1.4.2,1.9.6s.7,1,.7,1.7-.2,1.4-.7,1.8-1.1.6-1.9.6h-3.7v-4.7ZM80.7,18.5c-.2-.3-.5-.6-.8-.8-.3-.2-.6-.4-.9-.5.3-.1.5-.3.8-.5s.5-.5.7-.8.4-.6.5-1,.2-.8.2-1.2c0-1.4-.4-2.5-1.3-3.3s-2.1-1.2-3.6-1.2h-6.4v16.4h6.6c.7,0,1.4-.1,2-.3.6-.2,1.1-.5,1.6-.9.4-.4.8-.9,1-1.5s.4-1.2.4-2,0-1-.2-1.4c-.2-.4-.4-.7-.6-1"/>
  <rect class="st0" x="84.7" y="9.1" width="2.5" height="16.4"/>
  <path class="st0" d="M93.5,16.5v-5.2h3.7c.8,0,1.5.2,2,.7.5.4.8,1.1.8,1.9s-.3,1.4-.8,1.9-1.2.7-2,.7h-3.7ZM103,25.6l-3.8-7.3c.9-.3,1.7-.8,2.3-1.5s.9-1.7.9-2.9,0-1.3-.4-1.9c-.2-.6-.6-1.1-1-1.5s-1-.8-1.6-1-1.3-.4-2.1-.4h-6.4v16.4h2.5v-6.8h3.1l3.5,6.9h3Z"/>
  <polygon class="st0" points="108.2 14.6 112 22.6 113.9 22.6 117.7 14.6 117.7 25.6 120.2 25.6 120.2 9.1 117.7 9.1 113 19.4 108.2 9.1 105.7 9.1 105.7 25.6 108.2 25.6 108.2 14.6"/>
  <rect class="st0" x="124" y="9.1" width="2.5" height="16.4"/>
  <polygon class="st0" points="142.7 25.6 142.7 9.1 140.2 9.1 140.2 20.7 132.6 9.1 130.3 9.1 130.3 25.6 132.8 25.6 132.8 14 140.4 25.6 142.7 25.6"/>
  <path class="st0" d="M151.8,18.8h3.5v.9c0,.5-.1,1-.2,1.4-.1.4-.3.8-.6,1.2-.3.4-.7.6-1.2.8-.5.2-1,.3-1.5.3s-.9-.1-1.4-.3c-.4-.2-.8-.4-1.1-.7-.2-.2-.4-.5-.5-.7-.1-.3-.2-.6-.3-.9-.1-.4-.1-.8-.1-1.4v-4.2c0-.6.1-1,.1-1.4.1-.4.2-.7.3-.9.1-.3.3-.5.5-.7.3-.3.6-.5,1.1-.7.4-.2.9-.3,1.4-.3.9,0,1.7.2,2.3.8.6.5,1,1.2,1.2,2.1h2.5c-.1-.7-.3-1.4-.6-2s-.7-1.2-1.2-1.6c-.5-.5-1.1-.8-1.8-1.1s-1.5-.4-2.3-.4-1.7.1-2.4.5c-.7.3-1.4.7-1.9,1.3-.4.4-.7.8-.9,1.3-.2.4-.4.9-.5,1.4s-.2,1.1-.2,1.7v4.2c0,.6.1,1.2.2,1.7.1.5.3,1,.5,1.5.2.4.5.9.9,1.3.6.6,1.2,1,1.9,1.3s1.5.5,2.4.5,1.7-.2,2.4-.4c.8-.3,1.4-.8,2.1-1.4.5-.6.9-1.2,1.1-2,.2-.7.3-1.6.3-2.7v-2.5h-6v2.1h0Z"/>
  <polygon class="st0" points="170.2 16.2 163.5 16.2 163.5 9.1 161 9.1 161 25.6 163.5 25.6 163.5 18.4 170.2 18.4 170.2 25.6 172.7 25.6 172.7 9.1 170.2 9.1 170.2 16.2"/>
  <path class="st0" d="M179.1,20.2l2.6-7.3,2.5,7.3h-5.1ZM180.6,9.1l-6,16.4h2.7l1.1-3.3h6.5l1.1,3.3h2.7l-6-16.4h-2.1Z"/>
  <polygon class="st0" points="197.8 19.4 193 9.1 190.5 9.1 190.5 25.6 193 25.6 193 14.6 196.8 22.6 198.7 22.6 202.5 14.6 202.5 25.6 205 25.6 205 9.1 202.5 9.1 197.8 19.4"/>
  <path class="st0" d="M216,13.9c.1-.4.2-.7.3-.9.1-.3.3-.5.5-.7.3-.3.6-.5,1.1-.7.4-.2.9-.3,1.4-.3.9,0,1.6.3,2.2.8.5.5.9,1.2,1.1,2h2.5c-.3-1.6-1-2.9-2-3.8-1.1-.9-2.3-1.3-3.8-1.3s-1.7.1-2.4.4c-.7.3-1.4.7-1.9,1.3-.4.4-.7.8-.9,1.3-.2.4-.4.9-.5,1.5-.1.5-.2,1.1-.2,1.7v4.2c0,.6.1,1.2.2,1.7s.3,1,.5,1.5c.2.4.5.9.9,1.3.6.6,1.2,1,1.9,1.3s1.5.5,2.4.5,1.4-.1,2.1-.3c.7-.2,1.2-.5,1.8-1,.5-.4,1-1,1.3-1.6s.6-1.3.7-2.2h-2.7c-.2.8-.6,1.5-1.1,2-.6.5-1.3.8-2.2.8s-1-.1-1.4-.3c-.4-.2-.8-.4-1.1-.7-.2-.2-.4-.4-.5-.7-.1-.3-.2-.6-.3-.9-.1-.4-.1-.8-.1-1.4v-4.2c0-.5.1-.9.2-1.3"/>
  <rect class="st0" x="227.9" y="9.1" width="2.5" height="16.4"/>
  <polygon class="st0" points="232.8 11.4 237.3 11.4 237.3 25.6 239.8 25.6 239.8 11.4 244.3 11.4 244.3 9.1 232.8 9.1 232.8 11.4"/>
  <polygon class="st0" points="255.9 9.1 252.4 16.4 249 9.1 246.3 9.1 251.2 18.8 251.2 25.6 253.7 25.6 253.7 18.8 258.6 9.1 255.9 9.1"/>
</svg>