<?xml version="1.0" encoding="UTF-8"?>
<svg id="Layer_2" data-name="Layer 2" xmlns="http://www.w3.org/2000/svg" viewBox="0 0 999.32 465.9">
  <defs>
    <style>
      .cls-1 {
        fill: #231f20;
      }
    </style>
  </defs>
  <g id="Layer_4" data-name="Layer 4">
    <path class="cls-1" d="M204.63,98.31l-82.08,134.34,82.08,134.34h-106.32V98.31M360.61,0H0v465.29h360.61l-127.96-232.65L360.61,0h0Z"/>
    <path class="cls-1" d="M589.61,465.25l-172.5.37-127.96-232.65L417.11.33h269.62l-53.95,97.98h-136.01l-82.42,134.87,82.36,133.8h39.63l53.27,98.27Z"/>
    <polygon class="cls-1" points="845.71 465.9 737.87 465.9 629.07 465.9 501.42 233.94 601.3 234.14 682.97 367.25 791.37 366.98 845.71 465.9"/>
    <polygon class="cls-1" points="644.6 232.19 752.44 232.19 871.67 232.19 999.32 464.15 889.01 463.94 807.35 330.83 698.95 331.11 644.6 232.19"/>
  </g>
</svg>