<?xml version="1.0" encoding="UTF-8"?>
<svg id="Layer_2" data-name="Layer 2" xmlns="http://www.w3.org/2000/svg" viewBox="0 0 142.46 55.6">
  <defs>
    <style>
      .cls-1 {
        fill: #fff;
      }
    </style>
  </defs>
  <g id="Layer_1-2" data-name="Layer 1">
    <g>
      <g>
        <path class="cls-1" d="M57.7,0h.88c.71.13,1.41.36,1.99.79,1.1.77,1.75,2.11,1.73,3.44.99.44,1.94.97,2.78,1.65,1.34,1.06,2.4,2.48,3,4.08.64,1.67.8,3.48.66,5.25-.18,2.05-.75,4.06-1.53,5.96-1.56,3.76-3.85,7.18-6.48,10.27.58-1.01,1.3-1.92,1.9-2.92,1.41-2.31,2.79-4.67,3.74-7.22.66-1.81,1.11-3.72,1.08-5.66.03-2.06-.44-4.17-1.55-5.92-1-1.54-2.5-2.71-4.16-3.47-.22.35-.46.69-.77.97-1.24,1.18-3.22,1.42-4.73.63-1.12-.56-1.92-1.66-2.18-2.88-2.46.11-4.88.6-7.29,1.08.88.77,1.77,1.53,2.56,2.4,2.64,2.83,4.58,6.31,5.61,10.04,1.21,4.36,1.16,9.05-.15,13.38-1.15,3.85-3.28,7.41-6.15,10.23-1.82,1.8-3.92,3.34-6.26,4.38.01.04.03.13.04.18-5.2,3.08-10.76,5.6-16.59,7.25-4.2,1.16-8.57,1.91-12.94,1.65-2.73-.17-5.5-.76-7.89-2.15-1.82-1.05-3.34-2.66-4.16-4.6-.99-2.32-1.05-4.94-.55-7.39.48-2.44,1.42-4.77,2.58-6.96,1.76-3.28,4.01-6.27,6.49-9.03,4.84-5.35,10.58-9.84,16.76-13.55,5.94-3.52,12.34-6.36,19.08-7.96,2.95-.69,5.97-1.12,9.01-1.12.24-.54.52-1.07.94-1.5.67-.71,1.59-1.12,2.54-1.28ZM36.1,9.9c-7.39,3.24-14.27,7.77-19.8,13.68-2.53,2.72-4.89,5.63-6.76,8.85-1.52,2.66-2.71,5.64-2.62,8.75.03,1.87.58,3.75,1.63,5.3,1.17,1.74,2.98,2.96,4.91,3.74,2.36.95,4.92,1.4,7.47,1.36,2.66-.01,5.3-.42,7.91-.88,3.81-.71,7.65-1.52,11.22-3.06-.55.11-1.06.35-1.6.47-3.96,1.16-8.23,1.28-12.25.34-5.81-1.33-11.08-4.91-14.42-9.84,1.88-.04,3.76,0,5.63-.02,3.12,3.24,7.36,5.41,11.83,5.92-.34-.31-.73-.56-1.09-.84-2.32-1.72-4.65-3.44-6.97-5.15-1.17-.88-2.37-1.72-3.52-2.63,2.42,0,4.85,0,7.27,0,2.25,2.95,4.48,5.92,6.76,8.86,2.25-2.95,4.5-5.91,6.76-8.86,2.42,0,4.84,0,7.26,0-.25.24-.55.42-.82.63-3.34,2.47-6.67,4.93-10.01,7.4-.25.18-.52.35-.73.58,4.46-.5,8.67-2.68,11.79-5.89,1.52-.05,3.05-.01,4.57-.01,2.24-3.05,3.7-6.66,4.22-10.41.6-4.27,0-8.71-1.74-12.66-1.57-3.61-4.1-6.78-7.23-9.17-3.28.99-6.51,2.15-9.64,3.53Z"/>
        <path class="cls-1" d="M17.21,5.57C22.09,1.9,28.41.17,34.47.92c.03.02.08.05.1.07-7.3,2.9-14.14,6.92-20.34,11.75-1.92,1.5-3.77,3.1-5.55,4.77,1.51-4.74,4.53-8.98,8.52-11.94Z"/>
        <path class="cls-1" d="M25.26,6.45c3.59-2.02,7.33-3.78,11.18-5.23.49.12.98.25,1.48.34-.13.2-.42.18-.62.29-6.9,2.51-13.42,6.05-19.38,10.34-3,2.17-5.87,4.53-8.53,7.11-.51.48-.98,1-1.5,1.48.08-.54.11-1.14.39-1.62,5.05-4.97,10.81-9.21,16.97-12.7Z"/>
        <path class="cls-1" d="M27.09,7.45c3.84-2.1,7.84-3.89,11.99-5.28.54-.27,1.06.21,1.6.31-.05.2-.3.17-.46.25-4.16,1.31-8.16,3.07-12.01,5.12-6.22,3.33-12.02,7.45-17.15,12.3-1.22,1.16-2.39,2.35-3.51,3.6.04-.48.04-.95.12-1.43,5.61-5.97,12.26-10.92,19.43-14.86Z"/>
        <path class="cls-1" d="M32.85,20.51c1.27-.77,2.6-1.46,3.99-1.99,2.6,2.43,4.43,5.68,5.18,9.15-.71.06-1.41.18-2.11.32-1.87-2.9-4.27-5.45-7.06-7.48Z"/>
        <path class="cls-1" d="M21.31,27.66c.79-3.47,2.6-6.71,5.2-9.16,1.38.56,2.71,1.23,3.99,1.99-2.77,2.05-5.2,4.57-7.04,7.48-.71-.12-1.42-.25-2.14-.32Z"/>
        <path class="cls-1" d="M24.82,28.28c1.79-2.76,4.16-5.14,6.86-7.01,2.62,1.82,4.92,4.13,6.71,6.77.03.06.1.18.13.24-2.36.52-4.66,1.34-6.83,2.4-2.2-1.04-4.49-1.88-6.87-2.41Z"/>
        <path class="cls-1" d="M15.6,28.76c1.39-.12,2.78-.04,4.17.04-.24,1.92-.27,3.87.04,5.78-1.21,0-2.42.01-3.64,0-1.24-1.63-1.52-3.97-.58-5.81Z"/>
        <path class="cls-1" d="M43.58,28.8c.58-.04,1.16-.06,1.74-.08.81-.07,1.62.03,2.44.03.75,1.53.75,3.39-.03,4.91-.18.31-.33.69-.62.92-1.18.02-2.37,0-3.55,0,.27-1.91.28-3.86.02-5.78Z"/>
        <path class="cls-1" d="M21.07,28.94c.56.04,1.11.14,1.66.22-.56,1.07-1.12,2.15-1.56,3.28-.07.18-.14.35-.24.52-.12-1.34-.05-2.69.13-4.02Z"/>
        <path class="cls-1" d="M40.61,29.2c.55-.15,1.12-.21,1.68-.24.18,1.33.23,2.67.15,4.01-.03-.04-.09-.13-.11-.18-.49-1.23-1.03-2.45-1.71-3.59Z"/>
        <path class="cls-1" d="M24.09,29.42c2.08.47,4.11,1.14,6.08,1.97-.18.2-.43.29-.65.42-1.36.79-2.67,1.66-3.9,2.64-.1.08-.22.14-.35.12-1.16,0-2.33,0-3.49,0,.57-1.8,1.37-3.53,2.31-5.16Z"/>
        <path class="cls-1" d="M33.17,31.41c1.97-.84,4.01-1.53,6.11-1.98.92,1.64,1.74,3.35,2.3,5.15-1.22,0-2.44,0-3.65,0-1.17-.9-2.38-1.76-3.65-2.51-.36-.23-.76-.4-1.1-.66Z"/>
      </g>
      <g>
        <path class="cls-1" d="M103.6,5.02c.71-1.34-.3-2.89-.3-2.89,0,0-.4,1.45-2.53,1.34v2.69s2.13.2,2.83-1.14"/>
        <path class="cls-1" d="M92.72,12.88s-1.09-1.34-2.52-.81c-1.42.52-1.36,1.1-2.04,1.28-.64.16-1.67.07-2-.22.32.33,1.78,1.74,3.19.86,1.6-1,1.83-1.75,3.37-1.11"/>
        <path class="cls-1" d="M86.16,13.13l-.06-.07.06.07Z"/>
        <path class="cls-1" d="M94.54,49.18c.86-.11,1.61.44,1.61.44,0,0,.56-.07,1.63-2.04,1.06-1.98,1.14-3.12,1.18-4.33.04-1.22-1-3.43-1-3.43-1.02-.69-2.99-2.96-2.99-2.96-.37,1.05-.54.76-.04,3.26.49,2.51,1.44,2.36,1.83,4.95.38,2.58-2.21,4.11-2.21,4.11"/>
        <path class="cls-1" d="M93.04,50.16s-4.37.2-4.4,3.43c0,0,1.18.15,3.38.15,0,0-1.18-1.98,1.03-3.58"/>
        <path class="cls-1" d="M99.77,9.96c-.91.1-1.52.31-1.92-.1-.41-.42-.5-.72-1.01-.72s-1-.11-1-.11c0,0,.19-.2,1.11-.61,0,0,2.01.2,2.83.31.81.11,1.11.21,1.11.21,0,0-.21.93-1.11,1.03M140.82,43.79c.1-.52,1.64-1.05,1.64-1.05,0,0-.49-1.46-1-1.88-.5-.41-1.46-.06-2.06-.68-.61-.61-2.82-1.64-3.13-6.92-.3-5.27-.16-5.03-.16-5.03,0,0,5.41-3.13,5.21-9.43-.21-6.3-7.78-5.78-10.41-3.92-2.62,1.86-8.99,5.16-11.11-.73-.71-1.75,2.64-2.69,2.64-2.69,0,0,1.81.11,2.82-.82,1.01-.94.4-1.14,1.21-1.45.81-.32,1.62-.11,2.64-1.14,1.01-1.03,1.31-2.99,1.31-2.99,0,0-.91,1.54-2.12,1.45-1.21-.11-3.13-1.24-4.55-.83-1.42.42-1.92.93-2.53,1.96-.6,1.03-.51,1.34-1.21,1.86-.71.51-5.05,6.51,2.02,9.6,4.65,1.44,8.59-1.75,9.6-2.37,1.01-.62,2.02-1.24,3.94-1.24s3.94,1.34,4.04,3.2c.1,1.86-1.22,4.24-4.15,4.86-.6,0-1.61.31-1.61.31,0,0-1.72-2.27-9.2-.62-7.46,1.65-15.05,2.69-16.97-3.2-.5-5.26,3.4.57,3.4.57,0,0-.12-5.21-1.78-5.21-.93,0-2.02-.83-2.02-.83,0,0,.2-1.04.71-1.04s1.81,1.46,1.81,1.46c0,0,.39-3.96-1.12-4.89-.81-.5-1.19-1.06-1.36-1.46.57-.09,1.23-.27,1.68-.69,1.01-.92,1.51-1.97,1.61-3.1.11-1.13-.3-.51-1.01-.1-.71.41-2.02.62-3.03.62s-2.13-.42-2.13-.42c0,0-.7.94-1.51,1.15-.81.2-2.73.1-4.14,0-1.41-.11-2.22-.83-3.23-.52-1.02.31-1.32,1.04-2.63,1.34-1.31.31-1.82,0-2.74-.1-.91-.1-2.02-.1-2.22.62-.2.72-.5,1.65-.2,2.58.3.93.5,1.23,2.02,1.14,1.51-.1,3.22,0,3.94.92.71.94.71,1.97.5,2.58-.21.63-1.51.39-2.21.29-.71-.1-1.72-.52-2.12.21-.41.72-.81,3,.6,2.48,1.42-.51,5.05-.27,5.55-.27h.51s-5.15,3.85-5.06,8.69c0,7.33,6.47,12.06,6.47,12.06,0,0-1.1-3.41-.91-6.41.2-3,1.62-4.33,1.62-4.33,0,0-1.11,3.4-.1,7.95,1.01,4.54,2.23,8.26,1.01,11.15-1.21,2.89-2.2,4.01-2.91,4.01s-1.84-.49-2.45-.19c-.6.31-1.21,1.13-1.21,1.86s-.2,1.66.61,1.66,2.83-.1,3.84-.1,1.92-.21,2.63-.73c.71-.52,1.01-2.8,1.01-2.8,0,0,.81.22.81.73l.4-1.34c-.2-.72-.1-1.04.5-2.17.61-1.13.7-1.13,1.62-2.06.92-.93-.6-.73-.6-1.86s.4-1.54.9-2.69c.51-1.13-.1-.93-.5-1.23-.4-.31.25-.52.31-1.25.12-1.36-1.53-2.31-1.53-2.31,3.54-.59,3.76-1.87,3.76-1.87-4.52-1.21-4.32-4.83-4.32-4.83,4.45.35,5.72-1.86,5.72-1.86-2.41.47-3.51-2.24-3.51-2.24.69-.69.39-2.7.39-2.7-1.59-3.39-4.95-1.02-4.95-1.02.92-2.11,4.46-1.99,5.6.22,1.14,2.22.22,3.33.22,3.33,1.14,2.1,3.89,1.58,3.89,1.58-2.28,4.55-5.94,3.69-5.94,3.69,1.15,3.27,4.12,2.73,4.12,2.73-.06,1.74-.64,2.46-1.3,2.79.31.21.82.4,1.66.16.62-.17,1.25-.45,1.91-.76,1.4-.62,2.99-1.33,5.32-1.59,2.69-.31,4.42-.13,6.05.77.1-.33.3-.87.02-1.42-.21-.41-.38-.86.07-.62l.38.4s1.05,1.43,1.28,2.93l.37.35c.58.54,1.07,1.09,1.55,1.62.87.97,1.7,1.89,2.99,2.71.38.23.9.52,1.58.87,1.62.83,4.09.4,5.39,1.02,1.32.61,2.42,2.59,3.03,4.03.61,1.44.61,2.68.21,3.51-.41.83-.62,1.34-1.12,1.34s-.8-.41-1.62-.41-1.21.41-1.51,1.13c-.3.72-.3,2.07.1,2.07s5.05-.41,5.65-.41,1.02-.72,1.11-1.44c.11-.72,0-1.65,0-2.17s1.01.3,1.01.3c0,0,.21-1.33-.3-2.78-.5-1.44-1.11-3.1-1-3.61"/>
        <path class="cls-1" d="M124.55,38.68c-.46-.52-.94-1.05-1.49-1.57-2.17-2.05-3.82-2.52-7.36-2.11-2.19.24-3.69.9-5.02,1.51-.7.31-1.36.6-2.05.81-1.62.46-2.34-.58-2.76-1.16h-.42s-.85.39-.45.8c.41.42,1.83,2.34,5.22,1.87,1.91-.26,8.94-1.34,8.94-1.34,0,0-3.12,1.16-1.86,4.65.39,1.09,2.59,2.1,3.46,3.36.87,1.27.69,2.94.18,3.66-.5.72-2.03,1.21-2.03,1.21,0,0-2.01-.9-3.43.75-1.41,1.65-.6,2.59,0,2.59s4.45-.1,5.25-.1,1.31-.41,1.73-.94c.39-.51.6-2.37.6-2.37,0,0,1.11.51,1.11,1.13.3-.93.1-1.24,0-2.16-.09-.93.2-1.85.71-2.37.5-.52,1.51-.62,1.82-1.24.3-.63-.21-.52-.52-.73-.3-.2-1-.82-.71-1.34.31-.52,1.44-.9,1.54-1.63.04-.29.14-.37.23-.73-1.12-.82-1.91-1.69-2.67-2.55"/>
      </g>
    </g>
  </g>
</svg>